<svg xmlns="http://www.w3.org/2000/svg" viewBox="0 0 410 404"><path fill="#41D1FF" d="M399.641 59.525 215.643 388.545c-2.483 4.44-8.862 4.466-11.382.048L10.34 59.508c-2.746-4.814 1.371-10.646 6.827-9.67l186.35 33.566a6.5 6.5 0 0 0 2.311-.004l186.92-33.61c5.47-.983 9.574 4.883 6.817 9.698Z"/><path fill="#BD34FE" d="m292.965.006-130.4 24.63a3.25 3.25 0 0 0-2.634 3.14l-5.53 196.36a3.25 3.25 0 0 0 3.997 3.23l36.35-9.37c2.318-.597 4.413 1.507 3.81 3.828l-10.83 40.58c-.627 2.35 1.782 4.362 3.98 3.274l22.44-11.23c2.188-1.097 4.644.896 4.11 3.278l-17.14 74.83c-.672 2.94 2.882 4.814 4.824 2.38l1.313-1.67 106.91-287.468c.83-2.232-1.105-4.55-3.46-4.05l-37.3 7.97c-2.343.5-4.435-1.72-3.788-4.03l24.23-86.498c.67-2.38-1.448-4.6-3.81-4.03Z"/><path fill="url(#a)" d="M269.357 66.083 171.63 229.705a1.625 1.625 0 0 0 1.828 2.372l33.692-8.688c1.615-.417 3.03 1.172 2.614 2.78l-11.086 42.15c-.423 1.606 1.111 3.177 2.723 2.772l20.929-5.354c1.618-.414 3.03 1.18 2.61 2.79l-17.758 73.36c-.472 1.95 2.197 3.095 3.285 1.36l.367-.6 100.976-228.07c.743-1.677-.83-3.48-2.6-3.095l-34.369 7.614c-1.622.36-3.005-1.252-2.57-2.84l20.88-75.188c.436-1.57-1.1-3.167-2.71-2.787Z"/><defs><linearGradient id="a" x1="6.409" x2="235.627" y1="32.863" y2="344.173" gradientUnits="userSpaceOnUse"><stop stop-color="#FFEA83"/><stop offset=".083" stop-color="#FFDD35"/><stop offset="1" stop-color="#FFA800"/></linearGradient></defs></svg>
